<svg width="59" height="51" fill="none" xmlns="http://www.w3.org/2000/svg"><path d="M57.212 6.042A1.79 1.79 0 0059 4.254V2.407A1.79 1.79 0 0057.212.619H1.788A1.79 1.79 0 000 2.407v1.847a1.79 1.79 0 001.788 1.788h.06v35.221H.863a.864.864 0 100 1.729h27.772V45.1a2.716 2.716 0 00-1.848 2.57 2.715 2.715 0 002.713 2.71 2.715 2.715 0 002.712-2.711 2.716 2.716 0 00-1.848-2.57v-2.108h27.772a.864.864 0 000-1.729h-.983V6.042h.059zM29.5 48.652a.984.984 0 010-1.966.984.984 0 010 1.967zm25.924-7.389H3.576V6.042h47.17a.864.864 0 000-1.728H1.788a.06.06 0 01-.06-.06V2.407a.06.06 0 01.06-.06h55.424a.06.06 0 01.06.06v1.847a.06.06 0 01-.06.06h-2.771a.864.864 0 000 1.728h.983v35.221z" fill="#fff"/><path d="M9.178 25.44h1.847a.864.864 0 100-1.728h-.983v-1.967h7.509v1.967H14.72a.864.864 0 000 1.728h3.695a.864.864 0 00.864-.864v-3.695a.864.864 0 00-.864-.864h-3.754V18.05h13.915a.864.864 0 00.864-.865v-5.542a.864.864 0 00-.864-.864H9.178a.864.864 0 00-.865.864v5.542c0 .477.387.864.865.864h3.754v1.967H9.178a.864.864 0 00-.865.864v3.695c0 .477.387.864.865.864zm.864-12.932h17.67v3.814h-17.67v-3.814zm39.78 9.356H44.28a.864.864 0 00-.865.865v3.695c0 .477.387.864.865.864h1.907v1.966h-4.679a.864.864 0 00-.864.864v5.543c0 .477.387.864.864.864h8.314a.864.864 0 00.864-.864v-5.543a.864.864 0 00-.864-.864h-1.907v-1.966h1.907a.864.864 0 00.864-.864v-3.695a.864.864 0 00-.864-.864zm-.864 12.933h-6.585v-3.814h6.585v3.814zm0-9.238h-3.814v-1.966h3.814v1.966zm.253-15.45l-4.007 4.007-2.16-2.16a.864.864 0 00-1.222 1.223l2.77 2.77a.862.862 0 001.223 0l4.619-4.618a.864.864 0 10-1.223-1.222zm-8.015 6.466a.864.864 0 00-.82-.227l-5.226 1.306a.864.864 0 10.42 1.677l2.198-.55L24.97 31.58a4.648 4.648 0 01-3.308 1.37h-7.106a3.641 3.641 0 00-3.53-2.77 3.64 3.64 0 00-3.636 3.635 3.64 3.64 0 003.636 3.635 3.641 3.641 0 003.53-2.771h7.106a6.36 6.36 0 004.53-1.877L38.99 20.004l-.55 2.198a.864.864 0 101.677.42l1.306-5.226a.864.864 0 00-.227-.82zm-30.17 19.146a1.909 1.909 0 01-1.907-1.907c0-1.052.855-1.907 1.907-1.907 1.051 0 1.906.855 1.906 1.907a1.909 1.909 0 01-1.906 1.907z" fill="#fff"/><path d="M29.44 20.881a.864.864 0 00-.864-.864H22.11a.864.864 0 100 1.729h6.466a.864.864 0 00.864-.865zm8.374 9.297h-2.772a.864.864 0 100 1.729h2.772a.864.864 0 000-1.729zm-.001 3.695h-6.466a.864.864 0 000 1.729h6.466a.864.864 0 000-1.729zM22.11 23.712a.864.864 0 100 1.729h2.771a.864.864 0 000-1.729H22.11z" fill="#fff"/></svg>