<svg width="59" height="59" fill="none" xmlns="http://www.w3.org/2000/svg"><path d="M45.18 18.136c1.756-3.042 2.436-6.123 2.021-9.157-.375-2.742-1.449-4.939-3.191-6.53-1.526-1.393-3.483-2.226-5.662-2.41-2.056-.173-4.154.26-5.906 1.217-1.235.676-2.24 1.588-2.942 2.653-.702-1.065-1.706-1.977-2.942-2.653C24.807.3 22.71-.134 20.652.04c-2.179.183-4.136 1.016-5.661 2.409-1.743 1.591-2.817 3.788-3.192 6.53-.385 2.816.174 5.678 1.662 8.505 1.194 2.268 2.992 4.528 5.346 6.716a.866.866 0 001.178-1.268c-4.914-4.568-7.091-9.184-6.471-13.719.593-4.33 3.315-7.115 7.283-7.449 3.612-.305 6.997 1.585 7.877 4.393a.874.874 0 00.826.607c.374 0 .714-.25.826-.607.88-2.808 4.266-4.697 7.877-4.393 3.968.334 6.69 3.118 7.283 7.45.361 2.64-.243 5.345-1.796 8.041-1.273 2.21-3.18 4.419-5.668 6.565-3.572 3.083-7.338 5.154-8.522 5.772a48.042 48.042 0 01-6.922-4.462.865.865 0 00-1.062 1.366c3.898 3.03 7.456 4.773 7.606 4.846.237.115.52.115.757 0 .193-.094 4.789-2.348 9.247-6.188 2.642-2.275 4.679-4.637 6.054-7.018z" fill="#fff"/><path d="M22.76 14.402c.926 0 1.68-.753 1.68-1.68 0-.925-.754-1.679-1.68-1.679-.926 0-1.679.754-1.679 1.68a1.68 1.68 0 001.68 1.679zm15.159-1.679c0-.926-.754-1.68-1.68-1.68-.926 0-1.679.754-1.679 1.68 0 .925.753 1.679 1.68 1.679.925 0 1.679-.753 1.679-1.68zM29.5 18.42a3.835 3.835 0 003.675-2.7.865.865 0 00-1.651-.517 2.11 2.11 0 01-2.024 1.486 2.111 2.111 0 01-2.023-1.486.866.866 0 00-1.652.517 3.834 3.834 0 003.675 2.7zm29.1 4.134a2.612 2.612 0 00-4.476.083 2.386 2.386 0 00-3.623 1.235l-.405 1.254a2.369 2.369 0 00-3.575 1.269l-.266.855a2.435 2.435 0 00-.972-.387 2.425 2.425 0 00-2.712 1.65l-2.747 8.438c-.994.443-3.607 1.8-5.521 4.52-2.334 3.315-2.751 7.41-2.768 7.584a.88.88 0 00-.004.082v8.995c0 .478.388.866.866.866h9.97a.865.865 0 00.865-.866v-6.198l6.37-5.202c3.442-2.81 4.87-7.565 6.129-11.76.14-.47.804-2.636.804-2.636a.866.866 0 00-1.654-.51s-.666 2.175-.808 2.648c-1.188 3.957-2.535 8.443-5.565 10.917l-6.689 5.462a.865.865 0 00-.318.67v5.744h-8.239v-8.083c.046-.4.502-3.94 2.456-6.717 2.036-2.892 5.075-4.048 5.104-4.059a.855.855 0 00.088-.038l.013-.008a.856.856 0 00.204-.145l.005-.006 4.919-4.804c.25-.259.516-.504.774-.756.188-.183.356-.38.625-.437a.84.84 0 01.636.12c.39.26.476.827.185 1.193l-6.582 8.285a.865.865 0 001.204 1.225l3.564-2.732a20.648 20.648 0 007.267-10.538l1.825-6.102a.89.89 0 011.036-.581.89.89 0 01.645 1.12l-1.326 4.303a.865.865 0 101.654.51l1.326-4.303a2.612 2.612 0 00-.285-2.16zM44.216 29.05a.712.712 0 01.94-.436.713.713 0 01.407.863l-.886 2.851-2.242 2.19 1.78-5.468zm3.41 1.413c-.198 0-.39.025-.579.068l1.125-3.623a.64.64 0 111.221.386l-1.057 3.27a2.559 2.559 0 00-.68-.101h-.03zm2.442 3.295a2.565 2.565 0 00-.272-2.086l1.243-3.844.001-.001 1.107-3.422a.66.66 0 01.741-.446.652.652 0 01.445.303.651.651 0 01.07.534l-1.338 4.475a19.08 19.08 0 01-1.997 4.487zM24.697 41.47c-1.914-2.718-4.527-4.076-5.52-4.52l-2.748-8.436a2.424 2.424 0 00-2.712-1.65 2.435 2.435 0 00-.972.387l-.265-.856a2.369 2.369 0 00-3.575-1.269l-.406-1.254a2.397 2.397 0 00-2.69-1.616c-.339.06-.656.191-.933.381a2.6 2.6 0 00-2.653-1.277 2.612 2.612 0 00-2.107 3.354l2.734 8.873c.14.454.279.916.42 1.384 1.259 4.196 2.686 8.951 6.128 11.761a.866.866 0 001.095-1.34c-3.031-2.475-4.378-6.96-5.566-10.918-.142-.473-.282-.94-.423-1.396L1.77 24.204a.89.89 0 01.712-1.133.88.88 0 01.97.594l1.824 6.102a20.649 20.649 0 007.267 10.538l3.564 2.732a.865.865 0 001.204-1.225l-6.582-8.285a.823.823 0 01.056-1.086.83.83 0 011.162-.013l1 .978c.002 0 .003.001.003.002l4.919 4.804.003.004a.859.859 0 00.2.144c.007.004.013.008.02.01a.901.901 0 00.084.038c.03.011 3.07 1.167 5.106 4.06 1.955 2.777 2.41 6.32 2.456 6.716v8.083h-8.24v-5.743a.866.866 0 00-.317-.67l-4-3.267a.866.866 0 00-1.095 1.341l3.682 3.007v6.198c0 .478.387.865.865.865h9.97a.865.865 0 00.866-.865v-8.995a.883.883 0 00-.004-.083c-.017-.173-.434-4.269-2.768-7.584zM13.511 28.898a.699.699 0 01.486-.325.702.702 0 01.786.478l1.78 5.468-2.24-2.19-.886-2.85a.699.699 0 01.074-.58zm-6.577.374l-1.338-4.475a.651.651 0 01.07-.534.652.652 0 01.445-.302.66.66 0 01.741.445l1.107 3.422v.002l1.244 3.843a2.564 2.564 0 00-.272 2.086 19.08 19.08 0 01-1.997-4.487zm4.408 1.192c-.233.003-.46.039-.678.102l-1.058-3.27a.634.634 0 01.048-.505.64.64 0 011.172.119l1.126 3.622a2.536 2.536 0 00-.61-.068z" fill="#fff"/></svg>