<svg width="59" height="59" fill="none" xmlns="http://www.w3.org/2000/svg"><path d="M27.553 12.728v-1.203a.864.864 0 00-1.729 0v1.203a.864.864 0 101.729 0zm-5.098.921v-1.477a1.42 1.42 0 00-1.419-1.419h-2.953a1.42 1.42 0 00-1.419 1.42v1.476a2.898 2.898 0 002.895 2.895 2.898 2.898 0 002.896-2.895zm-4.063 0v-1.167h2.334v1.167a1.168 1.168 0 01-2.334 0zm27.086 22.412l-5.58-5.58a.864.864 0 00-1.476.611v2.104a.864.864 0 101.729 0v-.017l4.104 4.105a.86.86 0 001.223 0 .865.865 0 000-1.223zm3.802.872a10.29 10.29 0 00-3.032-7.322 10.288 10.288 0 00-7.322-3.033 10.287 10.287 0 00-7.322 3.033c-4.038 4.037-4.038 10.606 0 14.644a10.323 10.323 0 007.322 3.028c2.651 0 5.303-1.01 7.322-3.028a10.288 10.288 0 003.032-7.322zm-10.355 8.622a8.6 8.6 0 01-6.1-2.523c-3.363-3.363-3.363-8.836 0-12.2a8.571 8.571 0 016.1-2.526c2.305 0 4.47.898 6.1 2.527a8.57 8.57 0 012.527 6.1 8.57 8.57 0 01-2.527 6.1 8.6 8.6 0 01-6.1 2.522zm-25.63-32.827v-1.203a.864.864 0 00-1.73 0v1.203a.864.864 0 101.73 0zm25.27 24.666a2.828 2.828 0 00-.83-1.961 2.84 2.84 0 00-4.012 0 2.846 2.846 0 00-.565 3.205.864.864 0 101.566-.73 1.11 1.11 0 011.79-1.253 1.11 1.11 0 010 1.568l-.4.4a.864.864 0 101.222 1.222l.4-.4a1.11 1.11 0 011.568 1.568 1.112 1.112 0 01-1.253.221.865.865 0 00-.73 1.567 2.843 2.843 0 003.205-.566 2.84 2.84 0 000-4.012 2.827 2.827 0 00-1.961-.83zm17.931-10.389L44.401 14.91a2.65 2.65 0 00-3.743 0l-1.655 1.655v-4.19a4.693 4.693 0 00-4.688-4.688h-8.594A6.342 6.342 0 0019.56-.115a6.342 6.342 0 00-6.162 7.802h-5.76a.864.864 0 100 1.728h26.678a2.963 2.963 0 012.96 2.96v4.634H1.844v-4.634c0-1.243.785-2.362 1.953-2.784a.864.864 0 10-.588-1.626 4.702 4.702 0 00-3.094 4.41v28.64a4.694 4.694 0 004.688 4.689H20.2l11.808 11.807a4.657 4.657 0 003.315 1.374 4.66 4.66 0 003.315-1.373l1.41-1.41a.864.864 0 10-1.222-1.223l-1.41 1.41a2.963 2.963 0 01-4.186 0l-12.06-12.06-.001-.001-3.043-3.042a.913.913 0 01-.269-.644v-.021a.911.911 0 01.27-.634L41.88 16.132a.92.92 0 011.299 0L54.836 27.79l-.057.114a8.04 8.04 0 01-2.69 3.082 2.829 2.829 0 000 4.687 8.038 8.038 0 012.69 3.083l.056.114-13.17 13.17a.864.864 0 101.222 1.222l13.61-13.61c3.487-3.487 3.487-9.16 0-12.648zM19.56 7.687a1.469 1.469 0 010-2.935c.81 0 1.468.658 1.468 1.467 0 .81-.658 1.468-1.468 1.468zm4.367 0h-1.53c.23-.44.36-.939.36-1.468a3.2 3.2 0 00-3.197-3.196 3.2 3.2 0 00-3.196 3.196c0 .529.13 1.028.358 1.468h-1.528a4.611 4.611 0 014.366-6.073 4.611 4.611 0 014.367 6.073zm-3.572 27.527v-7.732a.864.864 0 00-1.475-.612l-1.488 1.488a.864.864 0 101.222 1.222l.012-.012v5.805c0 .428.31.782.719.852l-2.441 2.44a2.63 2.63 0 00-.506.715 8.656 8.656 0 01-5.464-8.024c0-4.756 3.87-8.626 8.626-8.626a8.629 8.629 0 017.964 5.315l-7.17 7.17zm8.473-8.473a10.36 10.36 0 00-9.268-5.74c-5.71 0-10.355 4.646-10.355 10.355 0 4.427 2.851 8.373 7 9.794.109.461.34.899.699 1.258l1.567 1.567H4.803a2.963 2.963 0 01-2.96-2.96V18.739H36.83l-8.003 8.003zm27.236 10.75a9.773 9.773 0 00-3.003-3.25 1.087 1.087 0 01-.484-.912c0-.371.176-.705.484-.913a9.768 9.768 0 003.003-3.25 7.23 7.23 0 010 8.326z" fill="#fff"/></svg>