<svg width="59" height="45" fill="none" xmlns="http://www.w3.org/2000/svg"><path d="M56.362 32.645l-3.569-1.02a.362.362 0 01-.262-.346v-1.192c.29-.201.568-.426.827-.678a6.358 6.358 0 001.946-4.6v-1.643l.345-.69a5.514 5.514 0 00.579-2.453v-4.454a.864.864 0 00-.864-.864h-8.317a5.491 5.491 0 00-5.485 5.484v.052c0 .704.167 1.41.482 2.04l.442.885v1.411a6.744 6.744 0 002.772 5.453v1.248c0 .193 0 .273-.713.477l-1.742.497-5.038-1.832a.863.863 0 00-.235-.662l-1.61-1.691v-2.84c.17-.14.338-.284.5-.436a10.143 10.143 0 003.196-7.374V15.15a9.99 9.99 0 00.924-4.2V1.707a.864.864 0 00-.864-.864H26.739c-4.553 0-8.257 3.704-8.257 8.256v1.849c0 1.454.31 2.866.924 4.2V17.1a10.56 10.56 0 003.696 8.06v2.906l-1.61 1.692a.863.863 0 00-.235.661l-5.318 1.934a4.53 4.53 0 00-1.068.56l-.835-.418c2.485-1.082 3.273-2.604 3.31-2.68a.864.864 0 000-.772c-.622-1.246-.698-3.53-.759-5.366a46.9 46.9 0 00-.075-1.702c-.295-4.145-3.447-7.271-7.331-7.271-3.885 0-7.036 3.126-7.33 7.271a46.772 46.772 0 00-.077 1.703c-.06 1.835-.136 4.119-.759 5.365a.864.864 0 000 .773c.038.075.824 1.594 3.314 2.677l-2.319 1.16A3.618 3.618 0 000 36.907v6.385a.864.864 0 001.729 0v-6.385c0-.728.404-1.382 1.054-1.707l2.888-1.444 1.005.955a3.626 3.626 0 002.505 1c.901 0 1.803-.333 2.505-1l1.005-.955.941.47a4.551 4.551 0 00-.695 2.414v6.652a.864.864 0 001.729 0V36.64c0-1.187.749-2.256 1.864-2.662l5.606-2.038 2.334 3.5a1.782 1.782 0 001.49.797c.472 0 .925-.186 1.263-.524l1.424-1.424v9.003a.864.864 0 101.728 0v-9.003l1.424 1.424a1.78 1.78 0 001.44.515 1.782 1.782 0 001.313-.787l2.334-3.501 5.606 2.039a2.84 2.84 0 011.864 2.661v6.652a.864.864 0 001.728 0V36.64a4.569 4.569 0 00-1.278-3.162l.214-.061c.215-.062.509-.146.804-.29l2.207 2.206v7.959a.864.864 0 001.728 0v-7.959l2.191-2.191c.117.06.24.11.368.146l3.57 1.02a1.916 1.916 0 011.384 1.834v7.15a.864.864 0 101.728 0v-7.15a3.652 3.652 0 00-2.638-3.497zM5.544 31.12c-1.616-.582-2.427-1.357-2.773-1.78.236-.618.389-1.324.492-2.07a6.445 6.445 0 002.282 2.814v1.036zm4.952 2.339c-.738.7-1.892.7-2.63 0l-.803-.764c.136-.254.21-.542.21-.844v-.921a6.43 6.43 0 003.816 0v.92c0 .303.074.591.21.845l-.803.764zM9.18 29.49c-2.58 0-4.68-2.1-4.68-4.68a.864.864 0 00-1.006-.851l.008-.223c.019-.594.037-1.155.072-1.637.11-1.553.73-2.984 1.747-4.03a5.342 5.342 0 013.86-1.636c1.462 0 2.833.582 3.858 1.637 1.017 1.045 1.637 2.476 1.748 4.03.034.48.053 1.042.072 1.636l.005.154c-.94-1.449-2.392-2.517-4.268-3.12-1.734-.556-3.225-.522-3.288-.52a.864.864 0 00-.598.264l-1.56 1.617a.864.864 0 101.245 1.2l1.298-1.346c1.117.055 4.712.473 6.11 3.552A4.669 4.669 0 019.18 29.49zm3.636 1.632V30.09a6.393 6.393 0 002.282-2.818c.104.745.257 1.45.492 2.065-.344.42-1.159 1.202-2.774 1.784zM21.134 17.1v-2.145c0-.13-.03-.258-.086-.375a8.29 8.29 0 01-.838-3.632V9.1c0-3.6 2.929-6.529 6.529-6.529h12.073v8.377a8.29 8.29 0 01-.838 3.632.864.864 0 00-.086.376v2.46c0 2.34-.941 4.512-2.65 6.113-.213.2-.434.387-.663.562l-.015.01a8.31 8.31 0 01-5.608 1.674c-4.384-.284-7.818-4.095-7.818-8.675zm4.867 17.39c-.006.006-.02.02-.049.017a.055.055 0 01-.044-.026l-2.687-4.032.865-.91 4.077 2.788-2.162 2.163zm3.51-3.335l-4.68-3.2v-1.613a9.731 9.731 0 004.689 1.18c1.652 0 3.243-.395 4.671-1.145v1.578l-4.68 3.2zm3.602 3.326a.055.055 0 01-.044.026c-.028.004-.042-.011-.048-.017l-2.162-2.163 4.077-2.787.865.909-2.688 4.032zm15.782-.73l-1.961-1.96c.034-.156.053-.326.053-.514v-.365a6.06 6.06 0 001.91.306c.656 0 1.297-.1 1.906-.289v.349c0 .172.022.34.062.503l-1.97 1.97zm3.259-5.583a4.645 4.645 0 01-3.404 1.319c-2.5-.075-4.535-2.278-4.535-4.91v-1.616a.864.864 0 00-.092-.387l-.533-1.067a2.847 2.847 0 01-.3-1.267v-.052a3.76 3.76 0 013.757-3.756h7.452v3.59c0 .58-.137 1.16-.396 1.68l-.437.872a.865.865 0 00-.09.387v1.848a4.64 4.64 0 01-1.422 3.359z" fill="#fff"/></svg>