<svg width="14" height="14" fill="none" xmlns="http://www.w3.org/2000/svg"><path d="M12.1 0H1.9C.854 0 0 .853 0 1.9v10.2C0 13.146.853 14 1.9 14h10.2c1.047 0 1.9-.853 1.9-1.9V1.9C14 .854 13.147 0 12.1 0zM7 10.42a3.135 3.135 0 01-3.131-3.13A3.135 3.135 0 017 4.157a3.135 3.135 0 013.131 3.131A3.135 3.135 0 017 10.42zm5.815-5.442h-2.83a3.883 3.883 0 00-5.97 0h-2.83V2.26c0-.691.562-1.254 1.253-1.254h9.124c.69 0 1.253.563 1.253 1.254v2.718z" fill="#969696"/><path d="M7 5.276c-1.11 0-2.013.903-2.013 2.013 0 1.11.903 2.013 2.013 2.013 1.11 0 2.012-.903 2.012-2.013 0-1.11-.903-2.013-2.012-2.013zm4.272-3.466H10.06a.503.503 0 00-.502.502v1.211c0 .277.225.503.502.503h1.212a.503.503 0 00.502-.503v-1.21a.503.503 0 00-.502-.503z" fill="#969696"/></svg>