<svg width="48" height="48" fill="none" xmlns="http://www.w3.org/2000/svg"><circle cx="24" cy="24" r="24" fill="#F8FAFC"/><g clip-path="url(#clip0)"><path d="M32.217 26.913c-.391-.47-.837-.892-1.267-1.3a41.572 41.572 0 01-.465-.444c-.438-.428-.454-.59-.107-1.076.24-.335.495-.671.74-.996.224-.295.455-.6.676-.906l.046-.063c.423-.585.86-1.19 1.093-1.92.06-.192.124-.476-.022-.713-.145-.236-.426-.309-.625-.343a1.708 1.708 0 00-.287-.018l-2.77-.002h-.022c-.42 0-.701.197-.863.603a16.62 16.62 0 01-.518 1.194c-.385.782-.874 1.683-1.582 2.434l-.03.032c-.083.09-.178.192-.247.192a.117.117 0 01-.035-.007c-.147-.057-.245-.412-.24-.577v-.007l-.003-3.2c0-.012 0-.023-.002-.034-.07-.52-.226-.844-.816-.96a.245.245 0 00-.048-.004h-2.88c-.469 0-.727.19-.97.476-.066.076-.202.235-.135.428.069.195.292.237.364.25.36.07.564.29.621.675.1.668.113 1.382.04 2.246a1.89 1.89 0 01-.13.584c-.015.037-.07.157-.127.157-.018 0-.07-.007-.164-.072-.223-.153-.387-.371-.577-.641a15.105 15.105 0 01-1.664-3.086c-.175-.428-.501-.667-.92-.674-.459-.007-.876-.01-1.273-.01-.434 0-.837.004-1.23.012-.336.006-.57.107-.692.3-.122.194-.114.448.024.755 1.108 2.464 2.113 4.255 3.258 5.808.802 1.087 1.607 1.84 2.532 2.368.975.557 2.067.828 3.34.828.144 0 .293-.003.444-.01.739-.036 1.013-.304 1.048-1.024.016-.367.056-.753.237-1.082.114-.208.22-.208.256-.208.067 0 .15.031.24.09.161.105.3.245.413.368l.317.353c.227.255.462.518.708.768.538.547 1.13.787 1.81.735h2.556a.74.74 0 00.601-.386c.16-.282.157-.642-.009-.964a5.173 5.173 0 00-.644-.929z" fill="#959595"/></g><defs><clipPath id="clip0"><path fill="#fff" transform="matrix(1 0 0 -1 15 33)" d="M0 0h18v18H0z"/></clipPath></defs></svg>