<svg width="59" height="51" viewBox="0 0 59 51" fill="none" xmlns="http://www.w3.org/2000/svg">
<path d="M57.212 6.04204C58.198 6.04204 59 5.24001 59 4.25407V2.40663C59 1.42068 58.198 0.618652 57.212 0.618652H1.78798C0.802031 0.618652 0 1.42068 0 2.40663V4.25407C0 5.24001 0.802031 6.04204 1.78798 6.04204H1.84744V41.263H0.864258C0.386957 41.263 0 41.6499 0 42.1272C0 42.6045 0.386957 42.9915 0.864258 42.9915H28.6357V45.0999C27.5631 45.4617 26.7883 46.4765 26.7883 47.6697C26.7883 49.1649 28.0048 50.3814 29.5 50.3814C30.9952 50.3814 32.2117 49.1648 32.2117 47.6697C32.2117 46.4766 31.4369 45.4618 30.3643 45.0999V42.9915H58.1357C58.613 42.9915 59 42.6045 59 42.1272C59 41.6499 58.613 41.263 58.1357 41.263H57.1526V6.04204H57.212ZM29.5 48.6527C28.9578 48.6527 28.5168 48.2116 28.5168 47.6695C28.5168 47.1275 28.9579 46.6864 29.5 46.6864C30.0421 46.6864 30.4832 47.1275 30.4832 47.6695C30.4832 48.2116 30.0422 48.6527 29.5 48.6527ZM55.424 41.263H3.57595V6.04204H50.7458C51.2231 6.04204 51.61 5.65509 51.61 5.17778C51.61 4.70048 51.2231 4.31353 50.7458 4.31353H1.78798C1.75513 4.31353 1.72852 4.28691 1.72852 4.25407V2.40663C1.72852 2.37379 1.75513 2.34717 1.78798 2.34717H57.212C57.2449 2.34717 57.2715 2.37379 57.2715 2.40663V4.25407C57.2715 4.28691 57.2449 4.31353 57.212 4.31353H54.441C53.9637 4.31353 53.5767 4.70048 53.5767 5.17778C53.5767 5.65509 53.9637 6.04204 54.441 6.04204H55.424V41.263Z" fill="white"/>
<path d="M9.17773 25.4402H11.0248C11.5021 25.4402 11.8891 25.0533 11.8891 24.576C11.8891 24.0987 11.5021 23.7117 11.0248 23.7117H10.042V21.7454H17.5509V23.7117H14.7199C14.2426 23.7117 13.8557 24.0987 13.8557 24.576C13.8557 25.0533 14.2426 25.4402 14.7199 25.4402H18.415C18.8923 25.4402 19.2793 25.0533 19.2793 24.576V20.8811C19.2793 20.4038 18.8923 20.0168 18.415 20.0168H14.6606V18.0505H28.5761C29.0534 18.0505 29.4403 17.6635 29.4403 17.1862V11.6438C29.4403 11.1665 29.0534 10.7795 28.5761 10.7795H9.17773C8.70043 10.7795 8.31348 11.1665 8.31348 11.6438V17.1862C8.31348 17.6635 8.70043 18.0505 9.17773 18.0505H12.9322V20.0168H9.17773C8.70043 20.0168 8.31348 20.4038 8.31348 20.8811V24.576C8.31348 25.0533 8.70043 25.4402 9.17773 25.4402ZM10.042 12.5079H27.7119V16.3219H10.042V12.5079Z" fill="white"/>
<path d="M49.822 21.8645H44.2796C43.8023 21.8645 43.4153 22.2515 43.4153 22.7288V26.4236C43.4153 26.9009 43.8023 27.2879 44.2796 27.2879H46.1865V29.2543H41.5083C41.031 29.2543 40.644 29.6412 40.644 30.1185V35.6609C40.644 36.1382 41.031 36.5252 41.5083 36.5252H49.822C50.2993 36.5252 50.6863 36.1382 50.6863 35.6609V30.1185C50.6863 29.6412 50.2993 29.2543 49.822 29.2543H47.9151V27.2879H49.822C50.2993 27.2879 50.6863 26.9009 50.6863 26.4236V22.7288C50.6863 22.2515 50.2993 21.8645 49.822 21.8645ZM48.9577 34.7967H42.3726V30.9828H48.9577V34.7967ZM48.9577 25.5594H45.1438V23.593H48.9577V25.5594Z" fill="white"/>
<path d="M49.2114 10.1088L45.2039 14.1164L43.0437 11.9563C42.7062 11.6188 42.1589 11.6188 41.8215 11.9563C41.484 12.2938 41.484 12.8411 41.8215 13.1785L44.5928 15.9497C44.7615 16.1184 44.9827 16.2028 45.2039 16.2028C45.425 16.2028 45.6462 16.1185 45.815 15.9497L50.4337 11.3309C50.7712 10.9934 50.7712 10.4462 50.4337 10.1088C50.096 9.77136 49.5488 9.77136 49.2114 10.1088Z" fill="white"/>
<path d="M41.1962 16.5754C40.9815 16.3609 40.6701 16.2744 40.3755 16.3481L35.1501 17.6544C34.687 17.7701 34.4055 18.2394 34.5213 18.7024C34.637 19.1656 35.1062 19.4471 35.5693 19.3313L37.7676 18.7817L24.9701 31.5793C24.0866 32.4628 22.9117 32.9494 21.6621 32.9494H14.5563C14.1674 31.3608 12.7323 30.1783 11.0256 30.1783C9.02093 30.1783 7.39014 31.8091 7.39014 33.8137C7.39014 35.8183 9.02093 37.4491 11.0256 37.4491C12.7324 37.4491 14.1674 36.2666 14.5563 34.678H21.6621C23.3735 34.678 24.9823 34.0116 26.1924 32.8015L38.9898 20.0039L38.4403 22.2022C38.3245 22.6652 38.606 23.1345 39.0691 23.2503C39.1394 23.2679 39.2099 23.2763 39.2794 23.2763C39.6666 23.2763 40.019 23.0142 40.1172 22.6214L41.4235 17.396C41.4971 17.1016 41.4108 16.7901 41.1962 16.5754ZM11.0256 35.7206C9.97404 35.7206 9.11865 34.8652 9.11865 33.8137C9.11865 32.7622 9.97404 31.9068 11.0256 31.9068C12.0771 31.9068 12.9324 32.7622 12.9324 33.8137C12.9324 34.8652 12.0771 35.7206 11.0256 35.7206Z" fill="white"/>
<path d="M29.4403 20.8813C29.4403 20.404 29.0533 20.0171 28.576 20.0171H22.1099C21.6326 20.0171 21.2456 20.404 21.2456 20.8813C21.2456 21.3586 21.6326 21.7456 22.1099 21.7456H28.576C29.0533 21.7456 29.4403 21.3588 29.4403 20.8813Z" fill="white"/>
<path d="M37.8136 30.178H35.0425C34.5652 30.178 34.1782 30.5649 34.1782 31.0422C34.1782 31.5195 34.5652 31.9065 35.0425 31.9065H37.8136C38.2909 31.9065 38.6779 31.5195 38.6779 31.0422C38.6779 30.5649 38.2909 30.178 37.8136 30.178Z" fill="white"/>
<path d="M37.8133 33.873H31.3472C30.8699 33.873 30.4829 34.26 30.4829 34.7373C30.4829 35.2146 30.8699 35.6016 31.3472 35.6016H37.8133C38.2906 35.6016 38.6776 35.2146 38.6776 34.7373C38.6776 34.26 38.2906 33.873 37.8133 33.873Z" fill="white"/>
<path d="M22.1099 23.7122C21.6326 23.7122 21.2456 24.0991 21.2456 24.5764C21.2456 25.0537 21.6326 25.4407 22.1099 25.4407H24.881C25.3583 25.4407 25.7453 25.0537 25.7453 24.5764C25.7453 24.0991 25.3583 23.7122 24.881 23.7122H22.1099Z" fill="white"/>
</svg>
