<svg width="59" height="59" viewBox="0 0 59 59" fill="none" xmlns="http://www.w3.org/2000/svg">
<path d="M45.1798 18.1357C46.9362 15.0943 47.6161 12.0133 47.201 8.97863C46.826 6.23724 45.7522 4.04014 44.0095 2.44859C42.4843 1.05574 40.5268 0.222752 38.3484 0.0396313C36.2915 -0.133682 34.1935 0.298678 32.4424 1.25628C31.2066 1.932 30.202 2.84437 29.5001 3.9094C28.7981 2.84425 27.7935 1.932 26.5577 1.25628C24.8068 0.298678 22.7096 -0.133566 20.6518 0.0396313C18.4733 0.222752 16.5157 1.05574 14.9907 2.44859C13.2479 4.04014 12.1742 6.23724 11.7992 8.97863C11.4139 11.7951 11.973 14.6569 13.4609 17.4843C14.6545 19.7524 16.4532 22.0117 18.807 24.1997C19.1572 24.5252 19.7048 24.5049 20.0302 24.155C20.3555 23.805 20.3355 23.2573 19.9855 22.9319C15.0709 18.3638 12.8935 13.7482 13.514 9.2131C14.1065 4.88235 16.8288 2.09769 20.7967 1.76422C24.4094 1.45948 27.7944 3.34931 28.6742 6.15739C28.786 6.51417 29.1262 6.76399 29.5001 6.76399C29.874 6.76399 30.2141 6.51429 30.3259 6.15739C31.2058 3.34942 34.5916 1.4596 38.2034 1.76422C42.1713 2.09769 44.8936 4.88224 45.4861 9.2131C45.8473 11.8534 45.2429 14.559 43.6897 17.255C42.4166 19.4646 40.5097 21.6736 38.0223 23.8203C34.4497 26.9034 30.6836 28.9743 29.4998 29.5924C28.4925 29.0671 25.6162 27.4913 22.5783 25.1297C22.201 24.8365 21.6574 24.9044 21.3639 25.2819C21.0706 25.6592 21.1388 26.2028 21.5161 26.4963C25.4137 29.526 28.9722 31.2692 29.1218 31.3419C29.3587 31.4569 29.6418 31.4569 29.8786 31.3419C30.0721 31.2478 34.6678 28.9942 39.1256 25.1543C41.7677 22.8786 43.8047 20.5171 45.1798 18.1357Z" fill="white"/>
<path d="M22.7603 14.4018C23.6863 14.4018 24.4397 13.6486 24.4397 12.7225C24.4397 11.7966 23.6864 11.0432 22.7603 11.0432C21.8344 11.0432 21.0811 11.7965 21.0811 12.7225C21.0811 13.6486 21.8343 14.4018 22.7603 14.4018Z" fill="white"/>
<path d="M37.9187 12.7225C37.9187 11.7966 37.1654 11.0432 36.2394 11.0432C35.3134 11.0432 34.5601 11.7965 34.5601 12.7225C34.5601 13.6484 35.3133 14.4018 36.2394 14.4018C37.1654 14.4018 37.9187 13.6486 37.9187 12.7225Z" fill="white"/>
<path d="M29.5 18.4193C31.1927 18.4193 32.6698 17.3347 33.1754 15.7202C33.3182 15.2641 33.0643 14.7786 32.6081 14.6357C32.1519 14.4929 31.6665 14.7469 31.5237 15.203C31.2454 16.0915 30.4323 16.6885 29.5002 16.6885C28.5681 16.6885 27.7549 16.0915 27.4766 15.203C27.3338 14.747 26.8481 14.4931 26.3922 14.6357C25.9361 14.7786 25.6821 15.2641 25.8249 15.7202C26.3303 17.3347 27.8074 18.4193 29.5 18.4193Z" fill="white"/>
<path d="M58.5995 22.5537C58.1943 21.9087 57.5301 21.4735 56.7769 21.3595C55.6913 21.1952 54.6516 21.7189 54.1241 22.6371C53.847 22.4471 53.5299 22.3153 53.192 22.2553C52.0241 22.0466 50.8663 22.7424 50.5011 23.872L50.0955 25.126C49.8767 24.9804 49.6348 24.8686 49.3766 24.802C48.1505 24.486 46.896 25.1856 46.5203 26.395L46.2547 27.2505C45.9659 27.0549 45.6353 26.9211 45.2828 26.8633C44.087 26.6674 42.9464 27.3615 42.571 28.5138L39.8236 36.9507C38.8304 37.3939 36.2166 38.7518 34.3028 41.4706C31.9689 44.786 31.5518 48.8818 31.5352 49.0545C31.5326 49.082 31.5312 49.1096 31.5312 49.1374V58.1323C31.5312 58.6104 31.9186 58.9977 32.3967 58.9977H42.3667C42.8447 58.9977 43.2321 58.6104 43.2321 58.1323V51.934L49.6024 46.732C53.0436 43.922 54.4711 39.1667 55.7307 34.9712C55.8712 34.5029 56.5355 32.3355 56.5355 32.3355C56.6762 31.8787 56.42 31.3944 55.9632 31.2535C55.5066 31.113 55.0221 31.369 54.8814 31.8258C54.8814 31.8258 54.2148 34.0012 54.0729 34.4735C52.8849 38.431 51.5383 42.9165 48.5076 45.3912L41.8193 50.853C41.618 51.0174 41.5013 51.2635 41.5013 51.5234V57.2668H33.2621V49.184C33.308 48.7841 33.7638 45.2434 35.7181 42.4669C37.7539 39.5748 40.7933 38.4189 40.8221 38.4081C40.8521 38.3971 40.8814 38.3842 40.91 38.3699C40.9146 38.3676 40.9189 38.3649 40.9234 38.3624C40.9542 38.3464 40.9839 38.3283 41.0125 38.3087C41.0215 38.3026 41.0304 38.2963 41.0391 38.2899C41.0697 38.2671 41.0992 38.2431 41.1267 38.2165C41.1285 38.2147 41.1303 38.2131 41.1321 38.2114L46.0507 33.4071C46.3008 33.1481 46.567 32.9027 46.8247 32.6511C47.0125 32.4676 47.1815 32.2719 47.4496 32.2141C47.6675 32.1671 47.9009 32.2108 48.0865 32.3343C48.4765 32.594 48.562 33.1607 48.2713 33.5269L41.6892 41.8115C41.4173 42.1536 41.4432 42.6447 41.7495 42.9564C42.0559 43.2682 42.5466 43.3024 42.8932 43.0367L46.4573 40.3051C49.9508 37.6278 52.4638 33.9836 53.7244 29.7665L55.5486 23.6651C55.6915 23.2364 56.1448 22.9837 56.5847 23.0837C57.0781 23.1957 57.3789 23.7212 57.23 24.2043L55.9042 28.507C55.7633 28.9638 56.0196 29.4481 56.4763 29.5889C56.9329 29.73 57.4176 29.4736 57.5582 29.0168L58.884 24.714C59.1083 23.986 59.0046 23.1987 58.5995 22.5537ZM44.2169 29.0497C44.3428 28.6628 44.7794 28.462 45.1563 28.6142C45.491 28.7493 45.6697 29.1321 45.5635 29.4765L44.678 32.3283L42.4362 34.5182L44.2169 29.0497ZM47.6268 30.4627C47.4294 30.4627 47.2362 30.4877 47.0484 30.5311L48.1733 26.9082C48.2749 26.5817 48.6139 26.3924 48.9447 26.4782C49.1175 26.5227 49.2598 26.6332 49.3459 26.7895C49.4318 26.9455 49.449 27.1248 49.3944 27.2943L48.3367 30.5644C48.1184 30.5016 47.8911 30.4656 47.6579 30.4629C47.6474 30.4627 47.6371 30.4627 47.6268 30.4627ZM50.0695 33.7576C50.2795 33.0625 50.1847 32.2991 49.7972 31.6722L51.0404 27.8285C51.0405 27.8283 51.0406 27.828 51.0407 27.8277C51.0409 27.8275 51.0409 27.8272 51.041 27.8269L52.1479 24.4046C52.2485 24.0935 52.5674 23.9022 52.8891 23.9595C53.1416 24.0045 53.2762 24.1684 53.3339 24.262C53.3917 24.3558 53.4775 24.5498 53.404 24.7956C53.404 24.7957 53.4039 24.7958 53.4039 24.7959L52.0661 29.2707C51.5898 30.8639 50.9183 32.368 50.0695 33.7576Z" fill="white"/>
<path d="M24.6974 41.4709C22.7834 38.7519 20.1697 37.394 19.1764 36.9509L16.429 28.5141C16.0538 27.3617 14.9131 26.6673 13.7172 26.8636C13.3648 26.9214 13.0342 27.0551 12.7454 27.2507L12.4796 26.3951C12.1041 25.1859 10.8494 24.4859 9.62332 24.8023C9.3652 24.8689 9.12335 24.9807 8.90457 25.1263L8.49898 23.8723C8.13389 22.7427 6.97736 22.0472 5.80813 22.2556C5.47027 22.3156 5.1533 22.4474 4.87603 22.6374C4.34882 21.7191 3.30963 21.1954 2.22325 21.3598C1.47023 21.4737 0.805827 21.909 0.400699 22.554C-0.00454361 23.199 -0.108162 23.9863 0.116152 24.7142L2.85039 33.5875C2.99001 34.0406 3.12882 34.5032 3.26936 34.9713C4.52894 39.1667 5.95641 43.922 9.39762 46.7322C9.76802 47.0342 10.3131 46.9797 10.6154 46.6093C10.9176 46.239 10.8627 45.6938 10.4925 45.3915C7.46176 42.9167 6.11518 38.4313 4.92726 34.4738C4.78545 34.0014 4.64548 33.5349 4.50448 33.0777L1.77024 24.2044C1.6132 23.6946 1.9559 23.1508 2.48207 23.0714C2.90797 23.0059 3.31552 23.2562 3.45168 23.6653L5.27585 29.7666C6.53658 33.9837 9.0495 37.6279 12.5431 40.3053L16.1072 43.0369C16.4543 43.3026 16.9447 43.2683 17.2509 42.9565C17.5572 42.6449 17.5831 42.1538 17.3112 41.8117L10.7292 33.527C10.4722 33.2036 10.4961 32.7369 10.7847 32.4415C11.0979 32.1208 11.6263 32.1148 11.9469 32.4278L12.9479 33.4056C12.9487 33.4065 12.9495 33.4071 12.9503 33.4081L17.8685 38.212C17.8699 38.2134 17.8713 38.2147 17.8725 38.2159C17.8998 38.2425 17.9293 38.2664 17.9598 38.2891C17.9696 38.2964 17.9795 38.3033 17.9895 38.3102C18.0163 38.3284 18.044 38.3453 18.0726 38.3604C18.0788 38.3638 18.0847 38.3677 18.0911 38.3708C18.1189 38.3846 18.1473 38.3971 18.1762 38.4079C18.2067 38.4194 21.2461 39.5752 23.282 42.4674C25.2373 45.2452 25.6925 48.7883 25.738 49.1844V57.2673H17.4988V51.5239C17.4988 51.264 17.382 51.0179 17.1808 50.8535L13.181 47.5872C12.8106 47.285 12.2654 47.34 11.9632 47.7102C11.661 48.0805 11.7159 48.6257 12.0861 48.928L15.7679 51.9345V58.1329C15.7679 58.6109 16.1552 58.9983 16.6333 58.9983H26.6033C27.0813 58.9983 27.4687 58.6109 27.4687 58.1329V49.1379C27.4687 49.1102 27.4673 49.0826 27.4647 49.055C27.4482 48.882 27.0311 44.7863 24.6974 41.4709ZM13.5106 28.8974C13.5739 28.7952 13.721 28.6169 13.9972 28.5717C14.3443 28.5147 14.6744 28.716 14.7831 29.05L16.5639 34.5183L14.3222 32.3285L13.4368 29.4774C13.3542 29.2106 13.4475 28.9996 13.5106 28.8974ZM6.93397 29.2708L5.59616 24.7961C5.59616 24.796 5.59616 24.7958 5.59605 24.7957C5.52255 24.55 5.60839 24.356 5.6662 24.2622C5.7239 24.1685 5.85856 24.0046 6.11102 23.9596C6.43376 23.9031 6.75154 24.0939 6.85216 24.4048L7.95908 27.8271C7.9592 27.8274 7.9592 27.8277 7.95931 27.8279C7.95943 27.8282 7.95954 27.8285 7.95966 27.8287L9.20285 31.6725C8.81538 32.2994 8.72053 33.0628 8.93065 33.758C8.08174 32.3684 7.41041 30.8642 6.93397 29.2708ZM11.3425 30.4631C11.1093 30.4659 10.8819 30.5019 10.6637 30.5647L9.60601 27.2946C9.55144 27.1251 9.56863 26.946 9.65448 26.7899C9.74044 26.6336 9.88283 26.523 10.0557 26.4784C10.3877 26.393 10.7255 26.5821 10.8269 26.9085L11.9517 30.5308C11.7537 30.4851 11.5501 30.46 11.3425 30.4631Z" fill="white"/>
</svg>
