<svg width="59" height="59" viewBox="0 0 59 59" fill="none" xmlns="http://www.w3.org/2000/svg">
<path d="M27.5528 12.728V11.5248C27.5528 11.0477 27.1661 10.6606 26.6885 10.6606C26.2114 10.6606 25.8243 11.0477 25.8243 11.5248V12.728C25.8243 13.2056 26.2114 13.5923 26.6885 13.5923C27.1661 13.5923 27.5528 13.2056 27.5528 12.728ZM22.4546 13.649V12.1721C22.4546 11.3898 21.8181 10.7533 21.0362 10.7533H18.0828C17.3005 10.7533 16.664 11.3898 16.664 12.1721V13.649C16.664 15.2456 17.9627 16.5443 19.5593 16.5443C21.1559 16.5443 22.4546 15.2456 22.4546 13.649ZM18.3925 13.649V12.4822H20.726V13.649C20.726 14.2922 20.203 14.8157 19.5593 14.8157C18.916 14.8157 18.3925 14.2922 18.3925 13.649ZM45.4776 36.0612L39.8973 30.4809C39.6502 30.2338 39.2784 30.16 38.9556 30.2936C38.6324 30.4273 38.4222 30.7424 38.4222 31.0922V33.1957C38.4222 33.6733 38.8089 34.0599 39.2865 34.0599C39.7636 34.0599 40.1507 33.6733 40.1507 33.1957V33.1786L44.2555 37.2838C44.4243 37.4526 44.6453 37.5368 44.8663 37.5368C45.0878 37.5368 45.3088 37.4526 45.4776 37.2838C45.8152 36.9462 45.8152 36.3988 45.4776 36.0612ZM49.2804 36.9327C49.2804 34.1666 48.2032 31.5666 46.2478 29.6108C44.292 27.655 41.6915 26.5778 38.9255 26.5778C36.1598 26.5778 33.5594 27.655 31.6036 29.6108C27.5663 33.6481 27.5663 40.2173 31.6036 44.2546C33.6224 46.2734 36.2742 47.2826 38.9255 47.2826C41.5772 47.2826 44.229 46.2734 46.2478 44.2546C48.2032 42.2988 49.2804 39.6988 49.2804 36.9327ZM38.9255 45.555C36.7166 45.555 34.5074 44.7142 32.8257 43.0325C29.4623 39.6691 29.4623 34.1963 32.8257 30.8329C34.4552 29.2039 36.6212 28.3063 38.9255 28.3063C41.2297 28.3063 43.3957 29.2039 45.0252 30.8329C46.6547 32.4624 47.5518 34.6284 47.5518 36.9327C47.5518 39.2369 46.6547 41.4034 45.0252 43.0325C43.3435 44.7142 41.1347 45.555 38.9255 45.555ZM13.2943 12.728V11.5248C13.2943 11.0477 12.9072 10.6606 12.43 10.6606C11.9524 10.6606 11.5658 11.0477 11.5658 11.5248V12.728C11.5658 13.2056 11.9524 13.5923 12.43 13.5923C12.9072 13.5923 13.2943 13.2056 13.2943 12.728ZM38.5649 37.3936C38.5536 36.6824 38.2773 35.9743 37.7357 35.4328C36.6293 34.3264 34.8297 34.3269 33.7232 35.4328C32.8828 36.2732 32.6555 37.5615 33.1579 38.6383C33.3595 39.0708 33.8736 39.2581 34.3062 39.0564C34.7387 38.8548 34.926 38.3407 34.7243 37.9077C34.5281 37.4873 34.6172 36.9836 34.9454 36.655C35.3775 36.2228 36.0811 36.2228 36.5136 36.655C36.9458 37.0875 36.9458 37.7906 36.5136 38.2228L36.1139 38.6225C35.7763 38.9601 35.7763 39.507 36.1139 39.8446C36.2827 40.0134 36.5042 40.0976 36.7252 40.0976C36.9462 40.0976 37.1677 40.0134 37.336 39.8446L37.7357 39.4453C38.1679 39.0128 38.8714 39.0128 39.3036 39.4453C39.7357 39.8775 39.7357 40.5806 39.3036 41.0132C38.975 41.3418 38.4717 41.4304 38.0508 41.2342C37.6183 41.0325 37.1038 41.2198 36.9021 41.6524C36.7004 42.0849 36.8877 42.5994 37.3203 42.8011C37.7015 42.9789 38.1098 43.0653 38.5149 43.0653C39.2536 43.0653 39.9833 42.7781 40.5257 42.2353C41.6321 41.1288 41.6321 39.3292 40.5257 38.2228C39.9842 37.6813 39.2766 37.4049 38.5649 37.3936ZM56.4965 27.0054L44.4009 14.9103C43.3687 13.8781 41.6897 13.8781 40.658 14.9103L39.0033 16.565V12.3751C39.0033 9.78999 36.9003 7.68696 34.3152 7.68696H25.7212C25.8346 7.20982 25.8936 6.71962 25.8936 6.21907C25.8936 2.72647 23.0519 -0.115234 19.5593 -0.115234C16.0667 -0.115234 13.225 2.72647 13.225 6.21907C13.225 6.71917 13.2839 7.20936 13.3974 7.68651H7.637C7.1594 7.68651 6.77274 8.07362 6.77274 8.55077C6.77274 9.02836 7.1594 9.41503 7.637 9.41503H24.5031C24.5045 9.41503 24.5058 9.41548 24.5072 9.41548C24.5081 9.41548 24.5094 9.41503 24.5103 9.41503H34.3152C35.9469 9.41503 37.2748 10.7429 37.2748 12.3751V17.0093H1.84375V12.3751C1.84375 11.1318 2.62879 10.0128 3.79689 9.59058C4.24568 9.42808 4.4784 8.93293 4.3159 8.4837C4.1534 8.03491 3.65825 7.80264 3.20901 7.96469C1.35851 8.63404 0.115234 10.4062 0.115234 12.3747V41.0159C0.115234 43.6005 2.21827 45.704 4.80339 45.704H20.1989L32.0069 57.5115C32.8923 58.3969 34.0694 58.8849 35.3217 58.8849C36.5739 58.8849 37.7511 58.3969 38.6369 57.5115L40.0472 56.1012C40.3848 55.7636 40.3848 55.2163 40.0472 54.8791C39.7096 54.5415 39.1627 54.5415 38.8251 54.8791L37.4148 56.2894C36.2607 57.4435 34.3831 57.4435 33.229 56.2894L21.169 44.2294C21.1685 44.2289 21.1681 44.2285 21.1676 44.228L18.1252 41.1856C17.9532 41.0136 17.8582 40.7854 17.8564 40.5423C17.8569 40.5351 17.8569 40.5279 17.8569 40.5207C17.8609 40.2817 17.9554 40.0571 18.1252 39.8874L41.8801 16.1324C42.238 15.7745 42.8205 15.7745 43.1788 16.1324L54.8355 27.7891L54.7788 27.903C54.1648 29.1431 53.2353 30.209 52.0897 30.9855C51.3118 31.5131 50.8473 32.389 50.8473 33.3289C50.8473 34.2692 51.3118 35.1452 52.0897 35.6728C53.2353 36.4492 54.1652 37.5152 54.7788 38.7548L54.8355 38.8687L41.6636 52.0406C41.326 52.3777 41.326 52.9251 41.6636 53.2627C42.0012 53.6003 42.5486 53.6003 42.8857 53.2627L56.496 39.6524C59.9828 36.1657 59.9828 30.4922 56.4965 27.0054ZM19.5593 7.68651C18.7499 7.68651 18.0918 7.02841 18.0918 6.21907C18.0918 5.40972 18.7499 4.75163 19.5593 4.75163C20.3686 4.75163 21.0267 5.40972 21.0267 6.21907C21.0267 7.02841 20.3686 7.68651 19.5593 7.68651ZM23.9256 7.68651H22.3969C22.6252 7.24673 22.7552 6.74798 22.7552 6.21907C22.7552 4.45679 21.3216 3.02311 19.5593 3.02311C17.797 3.02311 16.3629 4.45679 16.3629 6.21907C16.3629 6.74798 16.493 7.24673 16.7212 7.68651H15.193C15.0341 7.21612 14.953 6.72457 14.953 6.21907C14.953 3.6794 17.0196 1.61328 19.5593 1.61328C22.0989 1.61328 24.1651 3.6794 24.1651 6.21907C24.1651 6.72457 24.084 7.21612 23.9256 7.68651ZM20.3538 35.2141V27.4817C20.3538 27.1319 20.1431 26.8168 19.8204 26.6831C19.4976 26.5494 19.1258 26.6232 18.8787 26.8704L17.391 28.3581C17.0534 28.6957 17.0534 29.243 17.391 29.5802C17.7286 29.9178 18.2755 29.9178 18.6131 29.5802L18.6252 29.568V35.3734C18.6252 35.801 18.9358 36.1549 19.3437 36.2246L16.9026 38.6653C16.6888 38.8791 16.5218 39.1221 16.3966 39.3801C13.1404 38.0954 10.9329 34.9129 10.9329 31.3564C10.9329 26.5998 14.8027 22.7305 19.5593 22.7305C23.0582 22.7305 26.1929 24.8457 27.5226 28.0452L20.3538 35.2141ZM28.8271 26.7412C27.0945 23.2612 23.5214 21.0015 19.5593 21.0015C13.8493 21.0015 9.20437 25.6469 9.20437 31.3564C9.20437 35.7835 12.0551 39.7289 16.2035 41.15C16.3129 41.6114 16.5443 42.0489 16.903 42.4077L18.4704 43.9755H4.80339C3.17165 43.9755 1.84375 42.6476 1.84375 41.0159V18.7378H36.8305L28.8271 26.7412ZM56.063 37.4918C55.3257 36.1963 54.2962 35.0804 53.0597 34.2418C52.7523 34.0334 52.5758 33.7007 52.5758 33.3289C52.5758 32.9575 52.7523 32.6244 53.0597 32.416C54.2962 31.5779 55.3257 30.4615 56.063 29.1661C57.8212 31.6517 57.8212 35.0066 56.063 37.4918Z" fill="white"/>
</svg>
