<svg width="59" height="45" viewBox="0 0 59 45" fill="none" xmlns="http://www.w3.org/2000/svg">
<path d="M56.3625 32.6453L52.7931 31.6255C52.6391 31.5815 52.5314 31.4388 52.5314 31.2785V30.0871C52.8218 29.8859 53.0988 29.6607 53.3578 29.4094C54.6127 28.1916 55.3037 26.5582 55.3037 24.8098V23.1658L55.6489 22.4756C56.0276 21.718 56.2278 20.8697 56.2278 20.0228V15.569C56.2278 15.0917 55.8408 14.7047 55.3635 14.7047H47.0467C44.0225 14.7047 41.562 17.1652 41.562 20.1894V20.2409C41.562 20.9452 41.7286 21.6506 42.0435 22.2804L42.4861 23.1657V24.5773C42.4861 26.8144 43.5886 28.8217 45.2584 30.0296L45.2586 31.2783C45.2586 31.4708 45.2586 31.5506 44.545 31.7545L42.8033 32.2521L37.7652 30.4201C37.7833 30.1824 37.7031 29.9406 37.5296 29.7585L35.9197 28.067V25.2277C36.0899 25.0874 36.2577 24.9434 36.4203 24.791C38.4513 22.8874 39.6161 20.1997 39.6161 17.4171V15.1495C40.2294 13.815 40.5401 12.4028 40.5401 10.9484V1.70776C40.5401 1.23046 40.1532 0.843506 39.6759 0.843506H26.7386C22.1857 0.843506 18.4818 4.5476 18.4818 9.10039V10.9486C18.4818 12.403 18.7925 13.8152 19.4058 15.1497V17.1008C19.4058 20.3315 20.8423 23.2421 23.1022 25.161V28.0672L21.4922 29.7586C21.3188 29.9408 21.2386 30.1825 21.2567 30.4202L15.9392 32.3538C15.5539 32.4939 15.1958 32.6837 14.8708 32.9136L14.0358 32.4961C16.5214 31.4141 17.3088 29.8925 17.3466 29.8169C17.4683 29.5736 17.4683 29.2871 17.3466 29.0439C16.7235 27.7977 16.648 25.5137 16.5874 23.6785C16.5672 23.0675 16.5481 22.4903 16.5116 21.9763C16.2169 17.8309 13.0655 14.7047 9.18095 14.7047C5.2964 14.7047 2.14486 17.8308 1.85032 21.9763C1.81379 22.4904 1.79466 23.0676 1.77449 23.6787C1.71388 25.5138 1.63829 27.7976 1.01533 29.0438C0.893643 29.287 0.893643 29.5735 1.01533 29.8168C1.05313 29.8924 1.83891 31.4109 4.32947 32.4941L2.01015 33.6537C0.770227 34.2741 0 35.5204 0 36.9066V43.2916C0 43.7689 0.386957 44.1558 0.864258 44.1558C1.34156 44.1558 1.72852 43.7689 1.72852 43.2916V36.9066C1.72852 36.1792 2.13264 35.5252 2.78314 35.1999L5.67126 33.7559L6.67587 34.7107C7.37834 35.3782 8.27947 35.7118 9.18095 35.7118C10.0822 35.7118 10.9838 35.378 11.686 34.7107L12.6905 33.7561L13.6322 34.2269C13.1888 34.9364 12.9371 35.7684 12.9371 36.6399V43.2918C12.9371 43.7691 13.3241 44.1561 13.8014 44.1561C14.2787 44.1561 14.6656 43.7691 14.6656 43.2918V36.6399C14.6656 35.4535 15.4148 34.3839 16.5299 33.9783L22.1363 31.9397L24.4701 35.4407C24.7685 35.8882 25.2466 36.1753 25.7818 36.2283C25.8415 36.2342 25.9009 36.237 25.9601 36.237C26.4323 36.237 26.8846 36.0512 27.2227 35.7132L28.6466 34.2894V43.2919C28.6466 43.7692 29.0335 44.1562 29.5108 44.1562C29.9881 44.1562 30.3751 43.7692 30.3751 43.2919V34.2894L31.7989 35.7132C32.1369 36.0513 32.5892 36.2372 33.0616 36.2372C33.1207 36.2372 33.1801 36.2343 33.2397 36.2284C33.7751 36.1754 34.2532 35.8883 34.5515 35.4408L36.8855 31.94L42.4918 33.9786C43.6068 34.3841 44.356 35.4537 44.356 36.6401V43.292C44.356 43.7693 44.743 44.1563 45.2203 44.1563C45.6976 44.1563 46.0845 43.7693 46.0845 43.292V36.6401C46.0845 35.4385 45.6071 34.3115 44.8062 33.478L45.0198 33.417C45.2351 33.3555 45.529 33.2713 45.824 33.1266L48.0306 35.3333V43.292C48.0306 43.7693 48.4176 44.1563 48.8949 44.1563C49.3722 44.1563 49.7591 43.7693 49.7591 43.292V35.3333L51.9504 33.142C52.0669 33.2012 52.1893 33.2512 52.3181 33.288L55.8876 34.3078C56.7023 34.5406 57.2715 35.295 57.2715 36.1424V43.292C57.2715 43.7693 57.6584 44.1563 58.1357 44.1563C58.613 44.1563 59 43.7693 59 43.292V36.1424C59 34.5271 57.9154 33.0891 56.3625 32.6453ZM5.5445 31.1188C3.92788 30.5371 3.11697 29.7616 2.77081 29.3381C3.00681 28.7211 3.15984 28.0145 3.26344 27.2686C3.74005 28.4114 4.53828 29.3869 5.5445 30.083V31.1188ZM10.4955 33.4578C9.75839 34.1582 8.60363 34.1581 7.8667 33.4577L7.06295 32.6939C7.19858 32.4398 7.27313 32.1518 7.27313 31.85V30.9288C7.87604 31.1172 8.51697 31.2188 9.18118 31.2188C9.84459 31.2188 10.4852 31.1167 11.0891 30.9294L11.089 31.8498C11.089 32.1518 11.1634 32.44 11.2992 32.6942L10.4955 33.4578ZM9.18141 29.4903C6.60063 29.4903 4.50117 27.3907 4.50117 24.8101C4.50117 24.3328 4.11421 23.9458 3.63691 23.9458C3.58851 23.9458 3.54127 23.9508 3.49506 23.9585C3.49759 23.8842 3.50001 23.8097 3.50255 23.7361C3.52179 23.1418 3.54035 22.5805 3.57457 22.0991C3.68496 20.5462 4.3055 19.1152 5.32187 18.0695C6.34734 17.0145 7.71794 16.4334 9.18118 16.4334C10.6444 16.4334 12.0149 17.0145 13.0405 18.0695C14.0569 19.1152 14.6774 20.5462 14.7878 22.0991C14.8219 22.5804 14.8406 23.1416 14.8602 23.7357C14.8619 23.7868 14.8636 23.8385 14.8654 23.8899C13.925 22.4412 12.4729 21.3735 10.5965 20.7706C8.86302 20.2137 7.37212 20.2482 7.3092 20.2498C7.08288 20.2561 6.86808 20.3508 6.71102 20.5138L5.15167 22.131C4.82037 22.4746 4.83028 23.0217 5.17391 23.353C5.51754 23.6843 6.06467 23.6743 6.39597 23.3308L7.69351 21.9852C8.81094 22.0398 12.4059 22.4579 13.804 25.5366C13.4522 27.8053 11.5022 29.4903 9.18141 29.4903ZM12.8174 31.1217L12.8175 30.0909C13.8229 29.3987 14.6223 28.425 15.0993 27.2735C15.2029 28.0177 15.3558 28.7227 15.5913 29.3383C15.2471 29.7578 14.4324 30.5402 12.8174 31.1217ZM21.1343 17.1007V14.9564C21.1343 14.8263 21.1049 14.6978 21.0484 14.5806C20.4922 13.4289 20.2103 12.207 20.2103 10.9486V9.10051C20.2103 5.5007 23.1389 2.57214 26.7386 2.57214H38.8116V10.9488C38.8116 12.2071 38.5296 13.4291 37.9735 14.5807C37.9169 14.6979 37.8876 14.8264 37.8876 14.9565V17.4173C37.8876 19.7578 36.9467 21.9287 35.2382 23.5302C35.0249 23.73 34.8035 23.9173 34.5747 24.0919C34.5696 24.0954 34.5648 24.0992 34.5598 24.1028C32.9593 25.3179 30.999 25.9085 28.9517 25.7758C24.5681 25.492 21.1343 21.6815 21.1343 17.1007ZM26.0006 34.4908C25.9946 34.4968 25.9806 34.5109 25.9524 34.508C25.9243 34.5052 25.9132 34.4887 25.9085 34.4816L23.2206 30.4497L24.0856 29.5409L28.1632 32.3281L26.0006 34.4908ZM29.5109 31.1556L24.8307 27.9564V26.3431C26.0417 26.9978 27.3977 27.4072 28.8398 27.5006C29.0676 27.5153 29.2941 27.5226 29.5198 27.5226C31.1724 27.5226 32.7629 27.1275 34.1912 26.3777V27.9564L29.5109 31.1556ZM33.1134 34.4818C33.1087 34.4889 33.0976 34.5054 33.0695 34.5082C33.0413 34.5118 33.0274 34.4969 33.0213 34.491L30.8587 32.3284L34.9363 29.5411L35.8014 30.45L33.1134 34.4818ZM48.8949 33.7526L46.9336 31.7914C46.9678 31.636 46.9872 31.4658 46.987 31.2781L46.9869 30.9133C47.5312 31.0919 48.1048 31.198 48.6984 31.2157C48.765 31.2178 48.831 31.2187 48.8974 31.2187C49.5533 31.2187 50.1936 31.1196 50.8029 30.9305V31.2785C50.8029 31.4509 50.8246 31.6198 50.8654 31.7822L48.8949 33.7526ZM52.154 28.169C51.238 29.0579 50.028 29.5274 48.7504 29.488C46.2493 29.413 44.2146 27.21 44.2146 24.5775V22.9618C44.2146 22.8276 44.1834 22.6953 44.1234 22.5753L43.5895 21.5076C43.3939 21.1163 43.2906 20.6784 43.2906 20.241V20.1895C43.2906 18.1183 44.9756 16.4333 47.0467 16.4333H54.4993V20.0229C54.4993 20.603 54.3622 21.1839 54.1028 21.7028L53.6665 22.5753C53.6065 22.6954 53.5752 22.8276 53.5752 22.9618V24.8099C53.5752 26.0867 53.0705 27.2797 52.154 28.169Z" fill="white"/>
</svg>
