<svg width="48" height="48" viewBox="0 0 48 48" fill="none" xmlns="http://www.w3.org/2000/svg">
<circle cx="24" cy="24" r="24" fill="#F8FAFC"/>
<path d="M27.3547 16H26.4889C24.0822 16 22.1243 17.958 22.1243 20.3646V22.2066H20.645C20.4927 22.2066 20.3691 22.3301 20.3691 22.4824V24.6893C20.3691 24.8417 20.4927 24.9652 20.645 24.9652H22.1242V31.7241C22.1242 31.8765 22.2478 32 22.4001 32H24.607C24.7593 32 24.8829 31.8765 24.8829 31.7241V24.9652H27.0779C27.2303 24.9652 27.3538 24.8417 27.3538 24.6893V22.4824C27.3538 22.3301 27.2303 22.2066 27.0779 22.2066H24.8829V20.3646C24.8829 19.4791 25.6033 18.7586 26.4888 18.7586H27.3546C27.507 18.7586 27.6305 18.6351 27.6305 18.4828V16.2759C27.6306 16.1235 27.5071 16 27.3547 16Z" fill="#969696"/>
</svg>
