<svg width="14" height="14" viewBox="0 0 14 14" fill="none" xmlns="http://www.w3.org/2000/svg">
<path d="M12.0992 0H1.90081C0.852697 0 0 0.852697 0 1.90081V12.0992C0 13.1474 0.852697 14 1.90081 14H12.0992C13.1473 14 14 13.1474 14 12.0992V1.90081C14 0.852697 13.1473 0 12.0992 0ZM7 10.4202C5.27356 10.4202 3.86902 9.01561 3.86902 7.28917C3.86902 5.56278 5.27361 4.15819 7 4.15819C8.72639 4.15819 10.131 5.56278 10.131 7.28917C10.131 9.01561 8.72644 10.4202 7 10.4202ZM12.8147 4.97797H9.98586C9.27177 4.1231 8.19835 3.5783 7 3.5783C5.80165 3.5783 4.72823 4.12314 4.01414 4.97797H1.18532V2.2595C1.18532 1.56853 1.74749 1.00641 2.43846 1.00641H11.5616C12.2526 1.00641 12.8147 1.56853 12.8147 2.2595V4.97797H12.8147Z" fill="#969696"/>
<path d="M6.99963 5.27637C5.88982 5.27637 4.98682 6.17932 4.98682 7.28913C4.98682 8.399 5.88977 9.3019 6.99963 9.3019C8.10949 9.3019 9.01244 8.399 9.01244 7.28913C9.01244 6.17932 8.10944 5.27637 6.99963 5.27637Z" fill="#969696"/>
<path d="M11.2716 1.80994H10.0602C9.78336 1.80994 9.55811 2.03524 9.55811 2.3121V3.52349C9.55811 3.80035 9.78331 4.02561 10.0602 4.02561H11.2716C11.5485 4.02561 11.7737 3.8004 11.7737 3.52349V2.3121C11.7737 2.03519 11.5485 1.80994 11.2716 1.80994Z" fill="#969696"/>
</svg>
